<?xml version="1.0" encoding="utf-8"?>
<!-- Generator: Adobe Illustrator 22.1.0, SVG Export Plug-In . SVG Version: 6.00 Build 0)  -->
<svg version="1.1" id="레이어_1" xmlns="http://www.w3.org/2000/svg" xmlns:xlink="http://www.w3.org/1999/xlink" x="0px"
	 y="0px" viewBox="0 0 116.2 85.5" style="enable-background:new 0 0 116.2 85.5;" xml:space="preserve">
<style type="text/css">
	.st0{fill:#FF0000;}
</style>
<g>
	<path class="st0" d="M28.8,1C11.4,1,1.4,16.1,1.4,42.5c0,26.3,10.2,42,27.4,42c17.1,0,27.4-15.8,27.3-42.1C56.1,16.1,46.2,1,28.8,1
		z M17.3,42.4c0-19,3.7-28.2,11.5-28.2c7.7,0,11.5,9.3,11.4,28.2c0,19.3-3.7,28.7-11.4,28.7S17.3,61.7,17.3,42.4z"/>
	<path class="st0" d="M99.8,69.2V2.5H87.5l-0.1,0.1c-5.1,3.2-10.6,5.1-18.3,6.6l-0.4,0.1v10.6h14.4v49.3H66V83h48.7V69.2H99.8z"/>
</g>
</svg>
