<?xml version="1.0" encoding="utf-8"?>
<!-- Generator: Adobe Illustrator 22.1.0, SVG Export Plug-In . SVG Version: 6.00 Build 0)  -->
<svg version="1.1" id="레이어_1" xmlns="http://www.w3.org/2000/svg" xmlns:xlink="http://www.w3.org/1999/xlink" x="0px"
	 y="0px" viewBox="0 0 116.2 85.5" style="enable-background:new 0 0 116.2 85.5;" xml:space="preserve">
<style type="text/css">
	.st0{fill:#FF0000;}
</style>
<g>
	<path class="st0" d="M28.5,1.5C11.3,1.5,1.4,16.4,1.4,42.4C1.4,68.5,11.5,84,28.5,84c16.9,0,27-15.6,27-41.6
		C55.5,16.4,45.7,1.5,28.5,1.5z M28.5,70.9c-7.7,0-11.4-9.3-11.4-28.4c0-18.8,3.7-27.9,11.4-27.9c7.6,0,11.3,9.1,11.3,27.9
		C39.8,61.6,36.1,70.9,28.5,70.9z"/>
	<path class="st0" d="M97.1,68.4c-3.7,0-8.7,0.4-11.4,0.7c17-16.8,25.3-30.9,25.3-42.9c0-14.8-10.1-24.7-25.2-24.7
		c-9.8,0-17.2,3.5-25.3,12l-0.3,0.3l9.2,9.2l0.3-0.4c4.8-5.3,9.4-7.9,14.1-7.9c7.2,0,11.3,4.5,11.3,12.3c0,10.8-10.1,24.4-33.7,45.7
		l-0.2,0.1v9.7h53.5V68.4H97.1z"/>
</g>
</svg>
