<?xml version="1.0" encoding="utf-8"?>
<!-- Generator: Adobe Illustrator 22.1.0, SVG Export Plug-In . SVG Version: 6.00 Build 0)  -->
<svg version="1.1" id="레이어_1" xmlns="http://www.w3.org/2000/svg" xmlns:xlink="http://www.w3.org/1999/xlink" x="0px"
	 y="0px" viewBox="0 0 116.2 85.5" style="enable-background:new 0 0 116.2 85.5;" xml:space="preserve">
<style type="text/css">
	.st0{fill:#FF0000;}
</style>
<g>
	<path class="st0" d="M28.5,1.3c-17.4,0-27.3,15-27.3,41.1c0,26.2,10.2,41.8,27.3,41.8c17,0,27.2-15.6,27.1-41.8
		C55.6,16.3,45.8,1.3,28.5,1.3z M28.5,70.9c-7.8,0-11.5-9.3-11.5-28.5c0-18.8,3.8-28,11.5-28s11.4,9.2,11.4,28
		C39.9,61.6,36.1,70.9,28.5,70.9z"/>
	<path class="st0" d="M99.1,41c8.5-3.6,13-9.9,13-18.3c0-13.3-10-21.5-26.1-21.5c-8.6,0-16.4,3.2-24,9.8l-0.4,0.3l8.6,10.4l0.4-0.3
		c5.2-4.7,9.6-6.8,14.6-6.9c6.4,0.1,10.1,3.5,10.1,9.4c0,7.8-6.1,11.6-18.7,11.6h-0.5v12.4h0.5c18.7,0,21.3,5.8,21.3,12.1
		c0,6.5-5,10.5-13,10.5c-6.2,0-11.8-2.6-17.3-8l-0.4-0.4l-7.9,10.7l0.3,0.3c6.5,7.3,15.5,11.1,26.8,11.1c16.7,0,28.3-9.6,28.3-23.5
		C114.7,51.2,108.9,43.9,99.1,41z"/>
</g>
</svg>
