<?xml version="1.0" encoding="utf-8"?>
<!-- Generator: Adobe Illustrator 22.1.0, SVG Export Plug-In . SVG Version: 6.00 Build 0)  -->
<svg version="1.1" id="Capa_1" xmlns="http://www.w3.org/2000/svg" xmlns:xlink="http://www.w3.org/1999/xlink" x="0px" y="0px"
	 viewBox="0 0 502.1 531.7" style="enable-background:new 0 0 502.1 531.7;" xml:space="preserve">
<style type="text/css">
	.st0{fill:none;stroke:#000000;stroke-miterlimit:10;}
</style>
<g>
	<path class="st0" d="M251.4,175.3c27.9,0,50.6-22.6,50.6-50.6c0-9.5-2.7-18.5-7.2-26.1l-43.4-75.1L208,98.7
		c-4.6,7.6-7.2,16.6-7.2,26.1C200.8,152.7,223.5,175.3,251.4,175.3z"/>
	<path class="st0" d="M226.1,168.1v50.6H99.6c-41.9,0-75.9,34-75.9,75.9v39c0,27.3,22.3,49.6,49.6,49.6c13.3,0,25.7-5.2,35-14.5
		l54.1-54l54,53.9c18.7,18.7,51.3,18.7,70.1,0l54.1-53.9l54,53.9c9.4,9.4,21.8,14.5,35,14.5c27.3,0,49.6-22.3,49.6-49.6v-38.8
		c-0.3-41.9-34.3-75.9-76.1-75.9l0,0H276.7v-50.6"/>
	<path class="st0" d="M29.5,357.2v125.6c0,13.9,11.1,25.2,24.7,25.2h394.6c13.6,0,24.7-11.4,24.7-25.2V357.2"/>
</g>
</svg>
