<?xml version="1.0" encoding="utf-8"?>
<!-- Generator: Adobe Illustrator 22.1.0, SVG Export Plug-In . SVG Version: 6.00 Build 0)  -->
<svg version="1.1" id="Capa_1" xmlns="http://www.w3.org/2000/svg" xmlns:xlink="http://www.w3.org/1999/xlink" x="0px" y="0px"
	 viewBox="0 0 502.1 347.1" style="enable-background:new 0 0 502.1 347.1;" xml:space="preserve">
<style type="text/css">
	.st0{fill:#FF0000;}
</style>
<g>
	<path class="st0" d="M109.3,43.6h335.3c11.6,0,21-9.4,21-21s-9.4-21-21-21H109.3c-11.6,0-21,9.4-21,21S97.8,43.6,109.3,43.6z"/>
	<path class="st0" d="M109.3,1.7h335.3c11.6,0,21,9.4,21,21s-9.4,21-21,21H109.3c-11.6,0-21-9.4-21-21S97.8,1.7,109.3,1.7z"/>
	<path class="st0" d="M478.1,152.6H109.3c-11.6,0-21,9.4-21,21s9.4,21,21,21h368.8c11.6,0,21-9.4,21-21S489.7,152.6,478.1,152.6z"/>
	<path class="st0" d="M478.1,194.5H109.3c-11.6,0-21-9.4-21-21s9.4-21,21-21h368.8c11.6,0,21,9.4,21,21S489.7,194.5,478.1,194.5z"/>
	<path class="st0" d="M327.3,303.4H109.3c-11.6,0-21,9.4-21,21c0,11.6,9.4,21,21,21h217.9c11.6,0,21-9.4,21-21
		C348.2,312.8,338.8,303.4,327.3,303.4z"/>
	<path class="st0" d="M327.3,345.4H109.3c-11.6,0-21-9.4-21-21c0-11.6,9.4-21,21-21h217.9c11.6,0,21,9.4,21,21
		C348.2,336,338.8,345.4,327.3,345.4z"/>
	<circle class="st0" cx="24" cy="173.6" r="21"/>
	<circle class="st0" cx="24" cy="324.6" r="21"/>
	<circle class="st0" cx="24" cy="22.8" r="21"/>
</g>
</svg>
