<?xml version="1.0" encoding="utf-8"?>
<!-- Generator: Adobe Illustrator 22.1.0, SVG Export Plug-In . SVG Version: 6.00 Build 0)  -->
<svg version="1.1" id="Capa_1" xmlns="http://www.w3.org/2000/svg" xmlns:xlink="http://www.w3.org/1999/xlink" x="0px" y="0px"
	 viewBox="0 0 512 512" style="enable-background:new 0 0 512 512;" xml:space="preserve">
<style type="text/css">
	.st0{fill:#FF0000;}
	.st1{fill:none;stroke:#FF0000;stroke-width:30;stroke-miterlimit:10;}
</style>
<g>
	<path class="st0" d="M482.2,457.9H29.8c-13.7,0-24.8-11.1-24.8-24.8V177.3c0-24.5,20-44.5,44.5-44.5h14.5V98.6
		c0-24.5,20-44.5,44.5-44.5h78.7c24.5,0,44.5,20,44.5,44.5v34.2h48.7V98.6c0-24.5,20-44.5,44.5-44.5h78.7c24.5,0,44.5,20,44.5,44.5
		v34.2h14.5c24.5,0,44.5,20,44.5,44.5v255.7C507.1,446.7,495.9,457.9,482.2,457.9z M34.9,427.9h442.1V177.3c0-8-6.5-14.5-14.5-14.5
		h-44.5V98.6c0-8-6.5-14.5-14.5-14.5h-78.7c-8,0-14.5,6.5-14.5,14.5v64.2H201.7V98.6c0-8-6.5-14.5-14.5-14.5h-78.7
		c-8,0-14.5,6.5-14.5,14.5v64.2H49.4c-8,0-14.5,6.5-14.5,14.5V427.9z"/>
</g>
<path class="st1" d="M-390.4,223h-30.5v-50.8c0-16.8-13.6-30.5-30.5-30.5h-81.2c-16.8,0-30.5,13.6-30.5,30.5V223h-81.2v-50.8
	c0-16.8-13.6-30.5-30.5-30.5h-81.2c-16.8,0-30.5,13.6-30.5,30.5V223h-30.5c-16.8,0-30.5,13.6-30.5,30.5v264
	c0,5.6,4.5,10.2,10.2,10.2h467c5.6,0,10.2-4.5,10.2-10.2v-264C-359.9,236.6-373.6,223-390.4,223z"/>
<g>
	<path class="st0" d="M1330.6,183.1L1330.6,183.1c-5.1-4.4-12.3-5.3-18.4-2.3L1197,236.8l-1.9-2.1l-105.7-121.8
		c-3.2-3.7-7.9-5.8-12.8-5.8c-4.9,0-9.5,2.1-12.8,5.8l-107.5,124l-115.2-56.1c-2.4-1.1-4.9-1.7-7.4-1.7c-3.9,0-7.8,1.4-11,4
		c-5.1,4.4-7.1,11.3-5.2,17.8l78.2,257.3c2.2,7.2,8.7,12,16.2,12h329.3c7.5,0,14-4.8,16.2-12l78.2-257.3
		C1337.7,194.4,1335.7,187.4,1330.6,183.1z M1228.9,436.3H924.6l-0.8-2.6L861.3,228l92,44.8c6.9,3.3,15.1,1.6,20.1-4.1l103.3-119.1
		L1180,268.7c5,5.8,13.3,7.5,20.1,4.1l92-44.8L1228.9,436.3z"/>
</g>
<g>
	<path class="st0" d="M711.2-203.5h320c11,0,20-9,20-20s-9-20-20-20h-320c-11,0-20,9-20,20S700.2-203.5,711.2-203.5z"/>
	<path class="st0" d="M711.2-243.5h320c11,0,20,9,20,20s-9,20-20,20h-320c-11,0-20-9-20-20S700.2-243.5,711.2-243.5z"/>
	<path class="st0" d="M1063.2-99.5h-352c-11,0-20,9-20,20s9,20,20,20h352c11,0,20-9,20-20S1074.2-99.5,1063.2-99.5z"/>
	<path class="st0" d="M1063.2-59.5h-352c-11,0-20-9-20-20s9-20,20-20h352c11,0,20,9,20,20S1074.2-59.5,1063.2-59.5z"/>
	<path class="st0" d="M919.2,44.5h-208c-11,0-20,9-20,20s9,20,20,20h208c11,0,20-9,20-20S930.2,44.5,919.2,44.5z"/>
	<path class="st0" d="M919.2,84.5h-208c-11,0-20-9-20-20s9-20,20-20h208c11,0,20,9,20,20S930.2,84.5,919.2,84.5z"/>
	<circle class="st0" cx="629.7" cy="-79.4" r="20"/>
	<circle class="st0" cx="629.7" cy="64.7" r="20"/>
	<circle class="st0" cx="629.7" cy="-223.4" r="20"/>
</g>
</svg>
