<?xml version="1.0" encoding="utf-8"?>
<!-- Generator: Adobe Illustrator 22.1.0, SVG Export Plug-In . SVG Version: 6.00 Build 0)  -->
<svg version="1.1" id="Capa_1" xmlns="http://www.w3.org/2000/svg" xmlns:xlink="http://www.w3.org/1999/xlink" x="0px" y="0px"
	 viewBox="0 0 502.1 350.9" style="enable-background:new 0 0 502.1 350.9;" xml:space="preserve">
<style type="text/css">
	.st0{fill:none;stroke:#FF0000;stroke-miterlimit:10;}
</style>
<g>
	<path class="st0" d="M473.6,82.9L473.6,82.9c-4.5-3.9-10.9-4.6-16.1-2l-101.2,49.3l-1.7-1.8L261.6,21c-2.9-3.2-6.9-5.2-11.2-5.2
		s-8.4,1.8-11.2,5.2l-94.4,109L43.4,80.8c-2-1-4.2-1.5-6.4-1.5c-3.5,0-6.9,1.2-9.7,3.6c-4.5,3.9-6.3,9.9-4.6,15.7l68.8,226.2
		c1.9,6.3,7.6,10.5,14.2,10.5h289.4c6.5,0,12.2-4.2,14.2-10.5l68.8-226.2C479.9,92.9,478.1,86.7,473.6,82.9z"/>
</g>
</svg>
