<?xml version="1.0" encoding="utf-8"?>
<!-- Generator: Adobe Illustrator 22.1.0, SVG Export Plug-In . SVG Version: 6.00 Build 0)  -->
<svg version="1.1" id="레이어_1" xmlns="http://www.w3.org/2000/svg" xmlns:xlink="http://www.w3.org/1999/xlink" x="0px"
	 y="0px" viewBox="0 0 263 147.2" style="enable-background:new 0 0 263 147.2;" xml:space="preserve">
<style type="text/css">
	.st0{fill:#FFFFFF;}
</style>
<path class="st0" d="M250,31.9c-3.7-5.3-8-10.2-13-14.4C223.7,6.2,206.8,0,189.4,0C172,0,155,6.2,141.7,17.6c-4.9,4.2-9.3,9-13,14.4
	c-2.8,4.1-5.3,8.5-7.2,13c-3.3,7.9-5.3,16.2-5.7,24.9l-0.1,3.3l0,0.5c0,11.6-4.9,22.9-13.4,30.8c-8.6,8.1-19.9,12-31.7,11.2
	c-20.8-1.5-37.6-18.2-39-39c-0.8-11.8,3.2-23.1,11.2-31.7c8-8.5,19.2-13.4,30.8-13.4c5.7,0,11.3,1.1,16.5,3.4
	c0.8,0.4,1.5,0.8,2.4,1.1c1.8,0.6,3.6,1,5.4,1c8.7,0,15.8-7.1,15.8-15.7c0-4.1-1.6-7.9-4.4-10.9c-1.6-1.7-3.7-3-5.9-3.9
	c-1.1-0.6-2.1-1-3.1-1.4c-9.9-3.9-20.3-5.5-31-4.9c-35.9,2-67.6,34.1-69.3,70c-0.9,20.3,6.3,39.6,20.3,54.3
	c14,14.7,33,22.8,53.2,22.8c17.4,0,34.3-6.2,47.6-17.6c4.9-4.2,9.3-9,13-14.4c2.8-4.1,5.3-8.5,7.2-13.1c3.9-9.1,5.8-18.7,5.8-28.6
	c0-11.6,4.9-22.8,13.3-30.7c8.6-8.1,19.8-12.1,31.6-11.3c22.1,1.4,39.4,20.2,39.4,42.9v57.1c0,8.7,7.1,15.7,15.7,15.7
	c8.7,0,15.7-7.1,15.7-15.7V73.6C263,58.7,258.5,44.2,250,31.9z"/>
</svg>
