<?xml version="1.0" encoding="utf-8"?>
<!-- Generator: Adobe Illustrator 22.1.0, SVG Export Plug-In . SVG Version: 6.00 Build 0)  -->
<svg version="1.1" id="레이어_1" xmlns="http://www.w3.org/2000/svg" xmlns:xlink="http://www.w3.org/1999/xlink" x="0px"
	 y="0px" viewBox="0 0 1031.7 981.2" style="enable-background:new 0 0 1031.7 981.2;" xml:space="preserve">
<style type="text/css">
	.st0{fill:url(#SVGID_1_);}
	.st1{fill:url(#SVGID_2_);}
	.st2{fill:url(#SVGID_3_);}
	.st3{fill:none;stroke:#00FF00;}
	.st4{fill:none;stroke:#0000FF;}
	.st5{fill:none;stroke:#FF0000;}
	.st6{fill:#00FF00;}
	.st7{fill:#0000FF;}
	.st8{fill:#00FFFF;}
	.st9{fill:#FF0000;}
	.st10{fill:#FFFF00;}
	.st11{fill:#FF00FF;}
	.st12{fill:#FFFFFF;}
</style>
<radialGradient id="SVGID_1_" cx="365.2" cy="619.8" r="322.4272" gradientUnits="userSpaceOnUse">
	<stop  offset="0" style="stop-color:#00FF00"/>
	<stop  offset="1" style="stop-color:#00FF00;stop-opacity:0"/>
</radialGradient>
<ellipse class="st0" cx="365.2" cy="619.8" rx="323.4" ry="321.5"/>
<radialGradient id="SVGID_2_" cx="666.5" cy="619.4" r="322.5451" gradientUnits="userSpaceOnUse">
	<stop  offset="0" style="stop-color:#0000FF"/>
	<stop  offset="1" style="stop-color:#0000FF;stop-opacity:0"/>
</radialGradient>
<ellipse class="st1" cx="666.5" cy="619.4" rx="323.5" ry="321.6"/>
<radialGradient id="SVGID_3_" cx="514.6" cy="361.4" r="322.545" gradientUnits="userSpaceOnUse">
	<stop  offset="0" style="stop-color:#FF0000"/>
	<stop  offset="1" style="stop-color:#FF0000;stop-opacity:0"/>
</radialGradient>
<ellipse class="st2" cx="514.6" cy="361.4" rx="323.5" ry="321.6"/>
<g>
	<path class="st3" d="M720.8,619.8c0,195.3-159.2,353.6-355.6,353.6S9.6,815.1,9.6,619.8s159.2-353.6,355.6-353.6
		C561.6,266.3,720.8,424.6,720.8,619.8z"/>
	<path class="st4" d="M1022.1,619.4c0,195.3-159.2,353.6-355.6,353.6S310.9,814.6,310.9,619.4s159.2-353.6,355.6-353.6
		S1022.1,424.1,1022.1,619.4z"/>
	<path class="st5" d="M870.2,361.4C870.2,556.7,711,715,514.6,715S159,556.6,159,361.4C159,166.1,318.2,7.8,514.6,7.8
		S870.2,166.1,870.2,361.4z"/>
</g>
<g>
	<path class="st6" d="M443,616.8c0-15,1.6-29.5,4.4-43.8c-74.8-24.4-132-87.3-147.9-165C211,436.7,147.2,519.4,147.2,616.8
		c0,121.2,98.7,219.7,220.8,219.7c56.9,0,108.9-21.3,147.9-56.6C471,739.7,443,681.4,443,616.8z"/>
	<path class="st7" d="M732.2,407.8c-15.9,78-73.1,140.6-147.9,165c2.7,14.2,4.4,28.7,4.4,43.8c0,64.8-28,122.8-72.9,163.1
		c39,35.3,91,56.6,147.9,56.6c121.8,0,220.8-98.2,220.8-219.7C884.6,519.2,820.5,436.6,732.2,407.8z"/>
	<path class="st8" d="M588.7,616.8c0-15-1.6-29.5-4.4-43.8c-21.4,7.1-44.5,10.9-68.5,10.9c-23.9,0-47-3.8-68.5-10.9
		c-2.7,14.2-4.4,28.7-4.4,43.8c0,64.8,28,122.8,72.9,163.1C560.7,739.7,588.7,681.4,588.7,616.8z"/>
	<path class="st9" d="M515.9,453.8c39-35.3,91-56.6,147.9-56.6c23.9,0,47,3.8,68.5,10.9c2.8-14.2,4.4-28.7,4.4-43.8
		c0-121.2-98.7-219.7-220.8-219.7s-220.8,98-220.8,219.4c0,15,1.7,29.5,4.4,43.8c21.4-7.1,44.5-10.9,68.5-10.9
		C424.8,397.2,476.5,418.5,515.9,453.8z"/>
	<path class="st10" d="M447.4,572.8c9.6-46.8,34.1-88.4,68.5-119.3c-39-35.3-91-56.6-147.9-56.6c-23.9,0-47,3.8-68.5,10.9
		C315.4,485.8,372.6,548.7,447.4,572.8z"/>
	<path class="st11" d="M515.9,453.8c34.4,30.9,58.8,72.2,68.5,119.3c74.8-24.4,132-87.3,147.9-165c-21.4-7.1-44.5-10.9-68.5-10.9
		C606.9,397.2,554.9,418.5,515.9,453.8z"/>
	<path class="st12" d="M515.9,453.8c-34.4,30.9-58.8,72.2-68.5,119.3c21.4,7.1,44.5,10.9,68.5,10.9c23.9,0,47-3.8,68.5-10.9
		C574.7,526,550.2,484.4,515.9,453.8z"/>
</g>
</svg>
