<?xml version="1.0" encoding="utf-8"?>
<!-- Generator: Adobe Illustrator 22.1.0, SVG Export Plug-In . SVG Version: 6.00 Build 0)  -->
<svg version="1.1" id="레이어_1" xmlns="http://www.w3.org/2000/svg" xmlns:xlink="http://www.w3.org/1999/xlink" x="0px"
	 y="0px" viewBox="0 0 335.9 70.9" style="enable-background:new 0 0 335.9 70.9;" xml:space="preserve">
<g>
	<path d="M0.7,35.8c0-21.8,14-34.6,30.7-34.6c8.4,0,15.1,4,19.4,8.5l-7,8.4c-3.3-3.2-7.1-5.5-12.1-5.5c-10,0-17.5,8.6-17.5,22.8
		c0,14.4,6.8,23,17.2,23c5.6,0,10.1-2.7,13.7-6.5l7,8.2c-5.4,6.3-12.5,9.7-21.1,9.7C14.3,69.9,0.7,57.9,0.7,35.8z"/>
	<path d="M58.1,43.7c0-16.7,11.5-26.3,24-26.3c12.5,0,24,9.6,24,26.3c0,16.5-11.5,26.2-24,26.2C69.6,69.9,58.1,60.2,58.1,43.7z
		 M92.7,43.7c0-9.5-3.8-15.6-10.6-15.6c-6.8,0-10.6,6.2-10.6,15.6c0,9.4,3.8,15.4,10.6,15.4C88.9,59.1,92.7,53.1,92.7,43.7z"/>
	<path d="M116.7,18.6h10.7l0.9,6.6h0.4c4.4-4.3,9.5-7.9,16.3-7.9c10.8,0,15.5,7.5,15.5,20.1v31.2h-13.1V39c0-7.7-2.1-10.4-7.1-10.4
		c-4.1,0-6.7,2-10.4,5.6v34.4h-13V18.6z"/>
	<path d="M175.3,51.1V28.9h-7.1v-9.7l7.7-0.6l1.5-13.4h11v13.4h12.3v10.4h-12.3v22.1c0,5.7,2.3,8.4,6.8,8.4c1.6,0,3.6-0.5,4.9-1.1
		l2.1,9.6c-2.7,0.9-6.2,1.9-10.5,1.9C179.9,69.9,175.3,62.4,175.3,51.1z"/>
	<path d="M206,55c0-10.7,8.7-16.3,28.8-18.5c-0.2-4.9-2.3-8.7-8.5-8.7c-4.6,0-9.1,2.1-13.8,4.7l-4.7-8.7c5.9-3.7,13-6.6,20.9-6.6
		c12.7,0,19.2,7.6,19.2,22.1v29.2h-10.7l-1-5.4h-0.3c-4.4,3.8-9.4,6.6-15.1,6.6C211.9,69.9,206,63.5,206,55z M234.7,54.7V44.6
		c-12.1,1.6-16.3,4.9-16.3,9.4c0,3.9,2.8,5.6,6.6,5.6C228.8,59.6,231.6,57.8,234.7,54.7z"/>
	<path d="M257.7,43.7c0-16.7,12-26.3,25.5-26.3c6.2,0,10.9,2.4,14.6,5.5l-6.3,8.5c-2.5-2.1-4.8-3.3-7.7-3.3
		c-7.6,0-12.8,6.2-12.8,15.6c0,9.4,5.2,15.4,12.4,15.4c3.6,0,7-1.7,9.7-4l5.2,8.7c-4.7,4.2-10.8,6.1-16.3,6.1
		C268.2,69.9,257.7,60.2,257.7,43.7z"/>
	<path d="M308.2,51.1V28.9h-7.1v-9.7l7.7-0.6l1.5-13.4h11v13.4h12.3v10.4h-12.3v22.1c0,5.7,2.3,8.4,6.8,8.4c1.6,0,3.6-0.5,4.9-1.1
		l2.1,9.6c-2.7,0.9-6.2,1.9-10.5,1.9C312.8,69.9,308.2,62.4,308.2,51.1z"/>
</g>
</svg>
