<?xml version="1.0" encoding="utf-8"?>
<!-- Generator: Adobe Illustrator 22.1.0, SVG Export Plug-In . SVG Version: 6.00 Build 0)  -->
<svg version="1.1" id="Capa_1" xmlns="http://www.w3.org/2000/svg" xmlns:xlink="http://www.w3.org/1999/xlink" x="0px" y="0px"
	 viewBox="0 0 112.3 112.5" style="enable-background:new 0 0 112.3 112.5;" xml:space="preserve">
<style type="text/css">
	.st0{fill:url(#SVGID_1_);}
	.st1{fill:url(#SVGID_2_);}
</style>
<g>
	
		<linearGradient id="SVGID_1_" gradientUnits="userSpaceOnUse" x1="56.1026" y1="840.1082" x2="56.1026" y2="732.5521" gradientTransform="matrix(1 0 0 1 0 -730)">
		<stop  offset="0" style="stop-color:#FFD600"/>
		<stop  offset="0.5271" style="stop-color:#FF0095"/>
		<stop  offset="0.5802" style="stop-color:#F2069C"/>
		<stop  offset="0.6791" style="stop-color:#CF14B0"/>
		<stop  offset="0.813" style="stop-color:#962CCF"/>
		<stop  offset="0.9753" style="stop-color:#494DFA"/>
		<stop  offset="0.9951" style="stop-color:#3F51FF"/>
	</linearGradient>
	<path class="st0" d="M56.1,38.3c-9.1,0-16.5,7.4-16.5,16.5S47,71.2,56.1,71.2s16.6-7.4,16.5-16.5C72.6,45.7,65.2,38.3,56.1,38.3z"
		/>
	
		<linearGradient id="SVGID_2_" gradientUnits="userSpaceOnUse" x1="56.15" y1="840.1082" x2="56.15" y2="732.5522" gradientTransform="matrix(1 0 0 1 0 -730)">
		<stop  offset="0" style="stop-color:#FFD600"/>
		<stop  offset="0.5271" style="stop-color:#FF0095"/>
		<stop  offset="0.5802" style="stop-color:#F2069C"/>
		<stop  offset="0.6791" style="stop-color:#CF14B0"/>
		<stop  offset="0.813" style="stop-color:#962CCF"/>
		<stop  offset="0.9753" style="stop-color:#494DFA"/>
		<stop  offset="0.9951" style="stop-color:#3F51FF"/>
	</linearGradient>
	<path class="st1" d="M102.9,29.8c-6.8-12-18-21.1-31.4-25.1c-4.9-1.5-10.1-2.3-15.4-2.3c-5.4,0-10.5,0.9-15.4,2.3
		C27.2,8.8,15.9,18,9.2,30.1c-4.3,7.8-6.8,16.8-6.8,26.2c0,9.9,2.7,19.1,7.3,27c3,5.3,6.9,9.9,11.4,13.8c9,7.8,20.6,12.6,33.3,13
		c0.6,0,1.1,0,1.7,0c0.6,0,1.1,0,1.7,0c12.8-0.4,24.5-5.3,33.5-13.1c4.4-3.7,8.1-8.2,11.1-13.2c4.8-8,7.5-17.4,7.5-27.4
		C109.9,46.8,107.4,37.8,102.9,29.8z M56.1,80c-14,0-25.3-11.3-25.3-25.3c0-14,11.3-25.3,25.3-25.3c14,0,25.3,11.3,25.3,25.3
		C81.4,68.7,70.1,80,56.1,80z M81.9,34.7c-3.3,0-5.8-2.6-5.8-5.8c0-3.3,2.6-5.8,5.8-5.8s5.8,2.7,5.8,5.8
		C87.7,32.1,85.1,34.7,81.9,34.7z"/>
</g>
</svg>
