<?xml version="1.0" encoding="utf-8"?>
<!-- Generator: Adobe Illustrator 22.1.0, SVG Export Plug-In . SVG Version: 6.00 Build 0)  -->
<svg version="1.1" id="Capa_1" xmlns="http://www.w3.org/2000/svg" xmlns:xlink="http://www.w3.org/1999/xlink" x="0px" y="0px"
	 viewBox="0 0 512 512" style="enable-background:new 0 0 512 512;" xml:space="preserve">
<style type="text/css">
	.st0{fill:#FF0000;}
</style>
<path class="st0" d="M497.2,12.7c-1.7-1.3-3.7-1.9-5.7-1.9c-1.5,0-3,0.4-4.5,1.1l0,0L16.2,248.3c-3.2,1.6-5.2,4.8-5.4,8.3
	c-0.2,3.5,1.6,6.9,4.6,8.7L128,334.6v156.9c0,4.2,2.7,7.9,6.7,9.3c4,1.3,8.4,0,10.9-3.4l78-103.9l172.8,106.3
	c2.7,1.7,6.1,1.9,9.1,0.6c2.9-1.3,5.1-4,5.7-7.1L501,22.5c0-0.1,0-0.2,0.1-0.3C501.7,18.4,500.2,14.9,497.2,12.7z M137.5,317.5
	l-96.9-59.6L427.4,63.7L137.5,317.5z M156.4,450.5l-8.8,11.7V334.7L427.3,89.8l-28.2,37.5C393.7,134.4,162.7,442,156.4,450.5z
	 M394.6,475.7l-159.2-98L473.9,60.1L394.6,475.7z"/>
</svg>
