<?xml version="1.0" encoding="utf-8"?>
<!-- Generator: Adobe Illustrator 22.1.0, SVG Export Plug-In . SVG Version: 6.00 Build 0)  -->
<svg version="1.1" id="Capa_1" xmlns="http://www.w3.org/2000/svg" xmlns:xlink="http://www.w3.org/1999/xlink" x="0px" y="0px"
	 viewBox="0 0 522 460" style="enable-background:new 0 0 522 460;" xml:space="preserve">
<style type="text/css">
	.st0{fill:#FF0000;}
</style>
<g>
	<path class="st0" d="M471.9,130h-34.2l-1.3-3.1c-9.9-23.5-24.8-45.4-43.2-63.2c-29.3-28.4-67.1-46.8-106.6-52
		c-65.5-8.6-129.7,16.5-171.7,67.1c-12,14.5-21.8,30.7-29.1,48.1l-1.3,3.1H50.1c-22,0-40,17.9-40,40v60c0,22,17.9,40,40,40h54.5
		l-4.3-13.1C81.1,197.9,92,137.7,130.2,91.6c32.7-39.4,80.5-61.5,131-61.5c7.5,0,15.1,0.5,22.7,1.5c73.5,9.7,133,67.4,144.7,140.4
		c8,49.8-6,100.1-38.2,138c-32.4,38-79.4,59.9-129.2,59.9c-22.2,0-40.2,18-40.2,40c0,22,17.9,40,40,40s40-17.9,40-40v-24.2l3.8-0.9
		c39.5-9.4,74.4-30.8,100.8-61.8c12.8-15.1,23.1-31.9,30.7-49.9l1.3-3.1h34.3c22,0,40-17.9,40-40v-60C511.9,148,493.9,130,471.9,130
		z M76,243.9l1.4,6.1H50.1c-11,0-20-9-20-20v-60c0-11,9-20,20-20h27.6l-1.5,6.2c-0.5,2.2-1,4.4-1.4,6.6
		C69.4,189.4,69.9,216.7,76,243.9z M281,409.9c0,11-9,20-20,20s-20-9-20-20c0-11,9.1-20,20.3-20c4.8,0,9.6-0.2,14.3-0.6l5.4-0.4
		V409.9z M491.9,230c0,11-9,20-20,20h-27.6l1.5-6.2c5.8-24.4,6.7-49.6,2.6-75c-0.7-4.1-1.5-8.4-2.5-12.6l-1.4-6.1h27.5
		c11,0,20,9,20,20V230z"/>
	<rect x="191" y="190" class="st0" width="20" height="20"/>
	<rect x="251" y="190" class="st0" width="20" height="20"/>
	<rect x="311" y="190" class="st0" width="20" height="20"/>
	<path class="st0" d="M390.9,200c0-71.6-58.3-129.9-129.9-129.9S131.1,128.4,131.1,200c0,29,9.9,57.5,27.7,80.3l1.6,2l-0.7,2.5
		c-3.9,13.5-15,23-28.6,24.9v20.3H261C332.6,329.9,390.9,271.6,390.9,200z M178.4,272.5c-17.6-20.1-27.3-45.8-27.3-72.5
		c0-60.6,49.3-109.9,109.9-109.9v0c60.6,0,109.9,49.3,109.9,109.9S321.6,309.9,261,309.9h-91.6l4.3-7.5c4-6.9,6.4-14.5,7.1-22.4
		l0.4-4.3L178.4,272.5z"/>
</g>
</svg>
