<?xml version="1.0" encoding="utf-8"?>
<!-- Generator: Adobe Illustrator 22.1.0, SVG Export Plug-In . SVG Version: 6.00 Build 0)  -->
<svg version="1.1" id="Capa_1" xmlns="http://www.w3.org/2000/svg" xmlns:xlink="http://www.w3.org/1999/xlink" x="0px" y="0px"
	 viewBox="0 0 112.4 112.3" style="enable-background:new 0 0 112.4 112.3;" xml:space="preserve">
<style type="text/css">
	.st0{fill:#FFFFFF;}
</style>
<path class="st0" d="M109.1,46H86.7H57.4v21.3h28.7c-2.6,7-7.6,12.7-13.8,16.4l0,0.1l0,0c-4.8,2.8-10.3,4.4-16.2,4.4
	c-13.7,0-25.5-8.6-30-20.8l0,0l0-0.1c-1.2-3.5-2-7.3-2-11.1c0-3.6,0.6-7.2,1.7-10.4c4.3-12.6,16.3-21.7,30.2-21.6
	c6.2,0,12.1,1.7,17,4.8l17.4-14.3C81.2,6.9,69.2,2.2,56.2,2.3c-20.8,0-38.9,11.8-47.8,29c-3.8,7.4-6,15.8-6,24.7
	c0,9.2,2.3,17.9,6.4,25.5l0.1,0l-0.1,0.1C17.9,98.5,35.7,110,56.2,110c12.8,0,24.5-4.5,33.7-11.9c9.5-7.7,16.4-18.4,19-30.8
	c0.8-3.6,1.1-7.4,1.1-11.2C110.1,52.7,109.7,49.3,109.1,46z"/>
</svg>
