<?xml version="1.0" encoding="utf-8"?>
<!-- Generator: Adobe Illustrator 22.1.0, SVG Export Plug-In . SVG Version: 6.00 Build 0)  -->
<svg version="1.1" id="Capa_1" xmlns="http://www.w3.org/2000/svg" xmlns:xlink="http://www.w3.org/1999/xlink" x="0px" y="0px"
	 viewBox="0 0 112.4 112.3" style="enable-background:new 0 0 112.4 112.3;" xml:space="preserve">
<style type="text/css">
	.st0{fill:#FBBB00;}
	.st1{fill:#518EF8;}
	.st2{fill:#28B446;}
	.st3{fill:#F14336;}
</style>
<g>
	<g>
		<path class="st0" d="M26.2,67.3l-3.7,14L8.7,81.6C4.6,74,2.3,65.3,2.3,56.1c0-8.9,2.2-17.4,6-24.7l0,0l12.2,2.2l5.4,12.2
			c-1.2,3.3-1.7,6.8-1.7,10.5C24.2,60,24.9,63.9,26.2,67.3z"/>
		<path class="st1" d="M109.1,46c0.6,3.3,1,6.6,1,10.1c0,3.8-0.4,7.6-1.2,11.2c-2.6,12.4-9.5,23.1-19,30.8l0,0l-15.3-0.8l-2.2-13.6
			c6.2-3.6,11.2-9.4,13.8-16.4H57.4V46h29.3H109.1L109.1,46z"/>
		<path class="st2" d="M90,98.1L90,98.1c-9.2,7.4-20.9,11.9-33.8,11.9c-20.5,0-38.4-11.5-47.5-28.3l17.5-14.3
			c4.5,12.2,16.3,20.8,30,20.8c5.9,0,11.4-1.6,16.2-4.4L90,98.1z"/>
		<path class="st3" d="M90.5,14.7L73.1,29c-4.9-3.1-10.7-4.8-17-4.8c-13.9-0.1-25.9,9-30.2,21.6L8.3,31.4l0,0
			c8.9-17.3,27-29.1,47.9-29.1C69.2,2.2,81.2,6.9,90.5,14.7z"/>
	</g>
</g>
</svg>
