<?xml version="1.0" encoding="utf-8"?>
<!-- Generator: Adobe Illustrator 22.1.0, SVG Export Plug-In . SVG Version: 6.00 Build 0)  -->
<svg version="1.1" id="Capa_1" xmlns="http://www.w3.org/2000/svg" xmlns:xlink="http://www.w3.org/1999/xlink" x="0px" y="0px"
	 viewBox="0 0 112.3 112.5" style="enable-background:new 0 0 112.3 112.5;" xml:space="preserve">
<style type="text/css">
	.st0{fill:#FFFFFF;}
</style>
<g>
	<path class="st0" d="M56.1,38.3c-9.1,0-16.5,7.4-16.5,16.5S47,71.3,56.1,71.3s16.6-7.4,16.5-16.5C72.6,45.7,65.2,38.3,56.1,38.3z"
		/>
	<path class="st0" d="M103,29.7c-6.8-12-18-21.1-31.5-25.1c-4.9-1.5-10.1-2.3-15.4-2.3c-5.4,0-10.6,0.9-15.4,2.3
		C27.1,8.7,15.8,17.9,9.1,30c-4.3,7.8-6.8,16.8-6.8,26.3c0,9.9,2.7,19.1,7.3,27c3,5.3,6.9,9.9,11.4,13.8c9,7.8,20.6,12.7,33.4,13
		c0.6,0,1.2,0,1.7,0c0.6,0,1.2,0,1.7,0c12.9-0.4,24.6-5.3,33.6-13.1c4.4-3.7,8.2-8.2,11.1-13.2c4.8-8.1,7.5-17.5,7.5-27.4
		C110,46.8,107.5,37.8,103,29.7z M56.1,80.1c-14,0-25.3-11.3-25.3-25.3s11.3-25.3,25.3-25.3c14,0,25.3,11.3,25.3,25.3
		S70.1,80.1,56.1,80.1z M81.9,34.6c-3.3,0-5.9-2.6-5.9-5.9c0-3.3,2.6-5.9,5.9-5.9s5.9,2.7,5.9,5.9C87.8,32,85.2,34.6,81.9,34.6z"/>
</g>
</svg>
