<?xml version="1.0" encoding="utf-8"?>
<!-- Generator: Adobe Illustrator 22.1.0, SVG Export Plug-In . SVG Version: 6.00 Build 0)  -->
<svg version="1.1" id="Capa_1" xmlns="http://www.w3.org/2000/svg" xmlns:xlink="http://www.w3.org/1999/xlink" x="0px" y="0px"
	 viewBox="0 0 460.9 460.9" style="enable-background:new 0 0 460.9 460.9;" xml:space="preserve">
<path d="M452.2,418.1L264.5,230.4L452,42.6c9.4-9.4,9.4-24.7,0-34.1c-9.4-9.4-24.7-9.4-34.1,0L230.4,196.3L42.9,8.8
	c-9.4-9.4-24.6-9.4-34.1,0c-9.4,9.4-9.4,24.6,0,34.1l187.5,187.5L8.7,418.3c-9.4,9.4-9.4,24.7,0,34.1c4.7,4.7,10.9,7,17,7
	c6.2,0,12.3-2.4,17-7.1l187.7-187.9l187.7,187.7c4.7,4.7,10.9,7.1,17,7.1s12.3-2.4,17-7.1C461.6,442.7,461.6,427.5,452.2,418.1z"/>
</svg>
