<?xml version="1.0" encoding="utf-8"?>
<!-- Generator: Adobe Illustrator 22.1.0, SVG Export Plug-In . SVG Version: 6.00 Build 0)  -->
<svg version="1.1" id="Capa_1" xmlns="http://www.w3.org/2000/svg" xmlns:xlink="http://www.w3.org/1999/xlink" x="0px" y="0px"
	 viewBox="0 0 513 456.2" style="enable-background:new 0 0 513 456.2;" xml:space="preserve">
<style type="text/css">
	.st0{fill:none;stroke:#F40000;stroke-miterlimit:10;}
</style>
<path class="st0" d="M484.5,148.8C481.3,80.1,428,25.7,364.3,25.2h0h-0.8h0c-58.9,0-91.8,43.1-107,72.2
	c-15.5-29.2-48.2-72.2-107-72.2h-1.1C84.8,25.8,31.7,80.1,28.5,148.8c-4,84.3,63.2,141,163.8,226.6c17.4,15,35.8,30.8,55.4,47.6
	l8.8,7.8v0l0,0l0,0l8.8-7.8c19.3-16.9,38-32.6,55.4-47.6C421.3,289.8,488.5,233.1,484.5,148.8z"/>
</svg>
