<?xml version="1.0" encoding="utf-8"?>
<!-- Generator: Adobe Illustrator 22.1.0, SVG Export Plug-In . SVG Version: 6.00 Build 0)  -->
<svg version="1.1" id="Capa_1" xmlns="http://www.w3.org/2000/svg" xmlns:xlink="http://www.w3.org/1999/xlink" x="0px" y="0px"
	 viewBox="0 0 492.9 470.9" style="enable-background:new 0 0 492.9 470.9;" xml:space="preserve">
<style type="text/css">
	.st0{fill:none;stroke:#000000;stroke-miterlimit:10;}
</style>
<g>
	<g>
		<path class="st0" d="M233,11.2c2.5-5.1,7.7-8.4,13.4-8.4c5.7,0,10.9,3.2,13.4,8.4l58.4,118.4c5.5,11.1,16.1,18.9,28.4,20.6
			l130.7,19c5.6,0.8,10.3,4.8,12.1,10.2c1.8,5.4,0.3,11.4-3.8,15.4L391.2,287c-8.9,8.7-12.9,21.2-10.9,33.4l22.3,130.1
			c1,5.6-1.3,11.3-6,14.7c-4.6,3.4-10.7,3.8-15.8,1.1L264,404.9c-11-5.8-24.1-5.8-35.1,0L112,466.3c-5,2.7-11.2,2.2-15.8-1.1
			c-4.6-3.4-6.9-9-6-14.7l22.3-130.1c2.1-12.2-2-24.7-10.9-33.4L7.2,194.8c-4.1-4-5.6-9.9-3.8-15.4s6.5-9.4,12.1-10.2l130.7-19
			c12.3-1.8,22.9-9.5,28.4-20.6L233,11.2z"/>
	</g>
</g>
</svg>
