<?xml version="1.0" encoding="utf-8"?>
<!-- Generator: Adobe Illustrator 22.1.0, SVG Export Plug-In . SVG Version: 6.00 Build 0)  -->
<svg version="1.1" id="Layer_1" xmlns="http://www.w3.org/2000/svg" xmlns:xlink="http://www.w3.org/1999/xlink" x="0px" y="0px"
	 viewBox="0 0 74 34.1" style="enable-background:new 0 0 74 34.1;" xml:space="preserve">
<style type="text/css">
	.st0{fill:#FFFFFF;}
	.st1{fill:#FFFF00;}
</style>
<g>
	<path class="st0" d="M62.1,4.4c-6.5-0.1-8.5,4.2-10.5,9.5c-1.1,2.9-2.5,7.3-2.5,10.5c0,4.4,3.2,5.4,6,5.4c2.8,0,6.1-0.6,8.7-5.4
		c1.6-2.9,3.1-6.9,3.8-10.2C68.3,11.2,69.7,4.5,62.1,4.4z M62.3,10.8c-0.1,2-3,10.1-4.1,11.8c-0.5,0.8-1,1.4-1.9,1.4
		c-0.8,0-1.2-0.6-1.2-1.2c-0.1-1.8,3.3-10.9,4.4-12.4c0.5-0.8,1.1-0.9,1.7-0.9C62.3,9.6,62.4,10.2,62.3,10.8z"/>
	<path class="st0" d="M44.6,14.8c-2.2,0.1-3.6,0.6-4.3,2.9c-0.7,2.4,1.9,2.4,1.9,2.4c-0.5,2.4-2.1,3.9-3.5,3.9
		c-0.9,0-1.7-0.4-1.4-2.2c0.4-2.7,2.9-9.3,4.1-10.9c0.5-0.7,1.2-1.4,2.3-1.4c1.3,0,1.2,0.7,0.9,1.6c-0.9,2.6,1.8,2.6,2.5,2.6
		c2.4-0.2,3.7-1.7,4-4.3c0.4-3.6-2.6-4.9-6.4-4.9c-6.3,0-8.8,3.9-11.2,9.4c-1.1,2.6-2.5,7.1-2.5,9.9c0,4,2.4,6.1,6.3,6.1
		c5.7,0,9.7-4.5,10.9-10.2C48.6,17.9,49.1,14.6,44.6,14.8z"/>
	<path class="st0" d="M15.5,4.5c-2,0-3.3,0.8-4.3,2.5C9,10.6,4.3,21.3,4.4,26c0.1,2.7,2.1,3.7,4.4,3.8c3.2,0.1,6.8-0.8,7.1-4.8
		c0.1-1.3-0.9-2.7-4.8-2.1c1.6-3.7,6.7-13.1,6.7-16.2C17.9,5.5,17.4,4.5,15.5,4.5z"/>
	<path class="st0" d="M25.9,13.8c0.8-2,1.5-3.1,1.5-3.1c0.9,0.1,2.3,0,3.2,0C32.8,10.6,35,9.6,35,7c0-1.9-2.3-2.7-4.3-2.7
		c-4.5,0-7.1,0.7-9.7,5.8c-2.1,4.1-4.3,10.4-4.3,14.5c0,3.5,2.8,5.3,6,5.3c2.9,0,7.1-1.1,7.1-4.9c0-1.6-1.2-2.4-3.1-2.4
		c-1.7,0-2.6,0.2-3.9,0.5c0.4-1.6,0.9-3,1.2-3.8c3.3,0.6,6.1,0.4,7-2.8C31.6,14.1,29.9,13.2,25.9,13.8z"/>
	<path class="st1" d="M61.9,0.1c-3.2,0-6.2,0.9-8.5,2.8c-2-2-4.8-2.9-8.7-2.9c-3,0-5.5,0.7-7.7,2C35.4,0.8,33.5,0,30.6,0
		c-2.7,0-6.5,0.1-9.3,2.6c-0.7-1.3-2-2.4-5.7-2.4c-3.4,0-6.2,1.6-8,4.6C5,8.7-0.1,19.9,0,26.1c0.1,4.6,3.6,7.8,8.6,7.9
		c3,0.1,5.6-0.6,7.6-1.9c1.8,1.3,4,2,6.6,2c3,0,5.7-0.8,7.8-2.2c1.8,1.5,4.2,2.2,6.9,2.2c3.5,0,6.8-1.2,9.4-3.5
		c1.8,2.3,4.9,3.5,8.6,3.5c7,0,10.7-4.3,13.4-9.9c1-2.1,2.9-7.3,3.3-10.2c0.4-3.5,0.8-6.7-1.5-10C69,1.6,66.2,0.1,61.9,0.1z
		 M70.5,11c-0.1,2.6-1,5.7-1.6,7.6c-2.8,8.3-6.1,13.5-13.8,13.5c-3.5,0-6.7-1.4-7.9-4.8c-2.3,2.9-5.8,4.8-9.8,4.8
		c-3.1,0-5.4-1.1-6.9-2.9c-1.8,2-4.8,2.9-7.8,2.9c-2.7,0-5-0.9-6.5-2.6c-1.6,1.7-4.2,2.5-7.6,2.5C4.4,32,2,29.4,1.9,25.9
		C1.8,20.4,7,9.2,9.2,5.7c1.5-2.4,3.5-3.6,6.3-3.6c1.5,0,3,0.3,4,1.3c0.8,0.8,0.9,1.6,1,3c2.4-3.9,6.4-4.4,10.2-4.4
		c2.8,0,5.2,1.1,6.2,2.7C38.6,3,41.4,2,44.7,2c3.4,0,5.9,0.8,7.4,2.6c0.3,0.4,0.6,0.7,0.9,1.4C54.9,3.6,57.7,2,61.8,2
		C68.9,2,70.7,6.7,70.5,11z"/>
	<path d="M61.3,9.5c-0.7,0-1.2,0.1-1.7,0.9c-1.1,1.5-4.5,10.6-4.4,12.4c0,0.7,0.4,1.2,1.2,1.2c0.9,0,1.4-0.6,1.9-1.4
		c1.1-1.8,4-9.8,4.1-11.8C62.4,10.2,62.3,9.6,61.3,9.5z"/>
	<path d="M61.8,2.6c-3.5,0-6.3,1.2-8.4,3.7l-0.5,0.6l-0.4-0.8c-0.3-0.6-0.5-0.9-0.8-1.2c-1.4-1.6-3.8-2.4-7-2.4
		c-3,0-5.7,0.9-7.6,2.5l-0.5,0.4l-0.3-0.5c-0.9-1.5-3.1-2.4-5.7-2.4c-3.7,0-7.4,0.5-9.7,4.1l-0.9,1.5l-0.1-1.8
		c-0.1-1.4-0.2-1.9-0.8-2.6c-0.7-0.7-1.9-1.1-3.6-1.1C12.9,2.6,11,3.7,9.7,6C7.5,9.4,2.4,20.6,2.5,25.9c0.1,3.4,2.4,5.6,6.1,5.6
		c3.1,0.1,5.6-0.7,7.2-2.3l0.4-0.4l0.4,0.4c1.4,1.5,3.6,2.4,6,2.4c3.2,0,5.9-1,7.4-2.7l0.4-0.5l0.4,0.5c1.5,1.8,3.7,2.7,6.5,2.7
		c3.7,0,7.1-1.7,9.4-4.6l0.6-0.8l0.3,0.9c1.4,3.8,5.2,4.4,7.4,4.4c7.3,0,10.5-5,13.2-13.2c0.7-2,1.5-5,1.6-7.5
		c0.1-1.8-0.2-4.4-1.9-6.2C66.7,3.3,64.6,2.6,61.8,2.6z M11.1,22.9c3.9-0.7,4.9,0.7,4.8,2.1c-0.4,4-4,4.8-7.1,4.8
		c-2.3-0.1-4.3-1.1-4.4-3.8C4.3,21.3,9,10.6,11.2,7c1-1.7,2.3-2.5,4.3-2.5c1.9,0,2.4,1,2.3,2.1C17.8,9.7,12.7,19.2,11.1,22.9z
		 M23.9,19.2c-0.3,0.7-0.8,2.2-1.2,3.8c1.3-0.3,2.3-0.6,3.9-0.5c1.9,0,3.1,0.8,3.1,2.4c0,3.8-4.2,4.9-7.1,4.9c-3.2,0-6-1.8-6-5.3
		c0-4.1,2.2-10.3,4.3-14.5c2.6-5.1,5.2-5.8,9.7-5.8c2,0,4.3,0.8,4.3,2.7c0,2.6-2.2,3.6-4.4,3.7c-0.9,0.1-2.4,0.1-3.2,0
		c0,0-0.7,1.1-1.5,3.1c4-0.6,5.7,0.3,5.1,2.7C30,19.6,27.3,19.8,23.9,19.2z M48.3,19.6c-1.1,5.7-5.2,10.2-10.9,10.2
		c-3.9,0-6.3-2.2-6.3-6.1c0-2.8,1.4-7.3,2.5-9.9c2.4-5.5,4.9-9.4,11.2-9.4c3.8,0,6.8,1.4,6.4,4.9c-0.3,2.6-1.6,4.2-4,4.3
		c-0.7,0.1-3.4,0-2.5-2.6c0.3-0.9,0.4-1.6-0.9-1.6c-1.1,0-1.8,0.7-2.3,1.4c-1.2,1.6-3.7,8.2-4.1,10.9c-0.3,1.9,0.5,2.2,1.4,2.2
		c1.4,0,3-1.5,3.5-3.9c0,0-2.7-0.1-1.9-2.4c0.7-2.3,2.1-2.8,4.3-2.9C49.1,14.6,48.6,17.9,48.3,19.6z M67.7,14.1
		c-0.7,3.3-2.2,7.3-3.8,10.2c-2.7,4.8-5.9,5.5-8.7,5.4c-2.8,0-6-1.1-6-5.4c0-3.1,1.3-7.6,2.5-10.5c2-5.3,4-9.6,10.5-9.5
		C69.7,4.5,68.3,11.2,67.7,14.1z"/>
	<path d="M61.8,2c-4.1,0-6.9,1.6-8.8,3.9c-0.3-0.7-0.6-1-0.9-1.4C50.6,2.8,48.1,2,44.7,2c-3.3,0-6,1-7.9,2.6c-1-1.6-3.3-2.7-6.2-2.7
		c-3.7,0-7.8,0.5-10.2,4.4c-0.1-1.4-0.2-2.1-1-3c-1-1-2.5-1.3-4-1.3c-2.7,0-4.8,1.2-6.3,3.6C7,9.2,1.8,20.4,2,25.9
		C2,29.4,4.4,32,8.6,32.1c3.3,0.1,5.9-0.8,7.6-2.5c1.5,1.6,3.7,2.6,6.5,2.6c3,0,6-0.9,7.8-2.9c1.5,1.9,3.9,2.9,6.9,2.9
		c4,0,7.5-1.9,9.8-4.8c1.3,3.4,4.4,4.8,7.9,4.8c7.6,0,11-5.2,13.8-13.5c0.6-1.9,1.5-5,1.6-7.6C70.7,6.7,68.9,2,61.8,2z M70,11
		c-0.1,2.4-0.9,5.4-1.6,7.5c-2.7,8.1-5.9,13.2-13.2,13.2c-2.2,0-6-0.6-7.4-4.4l-0.3-0.9L46.8,27c-2.3,2.9-5.7,4.6-9.4,4.6
		c-2.8,0-5.1-0.9-6.5-2.7l-0.4-0.5l-0.4,0.5c-1.6,1.7-4.3,2.7-7.4,2.7c-2.5,0-4.6-0.8-6-2.4l-0.4-0.4l-0.4,0.4
		c-1.6,1.6-4,2.4-7.2,2.3c-3.8-0.1-6.1-2.2-6.1-5.6C2.4,20.6,7.5,9.4,9.6,6c1.4-2.3,3.3-3.4,5.8-3.4c1.7,0,2.9,0.4,3.6,1.1
		c0.6,0.7,0.8,1.2,0.8,2.6l0.1,1.8l0.9-1.5c2.3-3.6,6-4.1,9.7-4.1c2.6,0,4.8,0.9,5.7,2.4l0.3,0.5L37.1,5c1.9-1.6,4.6-2.5,7.6-2.5
		c3.3,0,5.6,0.8,7,2.4c0.3,0.4,0.5,0.6,0.8,1.2l0.4,0.8l0.5-0.6c2.1-2.4,4.9-3.7,8.4-3.7c2.8,0,4.9,0.7,6.2,2.2
		C69.8,6.6,70,9.2,70,11z"/>
	<g>
		<path d="M72.4,2L72.4,2c0.3,0,0.5-0.3,0.5-0.6c0-0.3-0.2-0.5-0.6-0.5h-1v2h0.4V2.1h0.1c0.2,0,0.2,0,0.3,0.1
			c0.1,0.1,0.2,0.2,0.3,0.4l0.2,0.3h0.5l-0.2-0.4C72.6,2.2,72.6,2.1,72.4,2z M71.8,1.8V1.2h0.4c0.3,0,0.4,0.1,0.4,0.3
			c0,0.1-0.1,0.3-0.4,0.3H71.8z"/>
		<path d="M72.1,0L72.1,0c-1.1,0-1.9,0.8-1.9,1.9v0c0,1,0.8,1.9,1.9,1.9h0C73.2,3.8,74,3,74,1.9C74,0.9,73.1,0,72.1,0z M72.1,3.4
			c-0.8,0-1.5-0.7-1.5-1.5c0-0.8,0.7-1.5,1.5-1.5c0.8,0,1.5,0.7,1.5,1.5C73.6,2.7,72.9,3.4,72.1,3.4z"/>
	</g>
</g>
</svg>
