<?xml version="1.0" encoding="utf-8"?>
<!-- Generator: Adobe Illustrator 22.1.0, SVG Export Plug-In . SVG Version: 6.00 Build 0)  -->
<svg version="1.1" id="Layer_1" xmlns="http://www.w3.org/2000/svg" xmlns:xlink="http://www.w3.org/1999/xlink" x="0px" y="0px"
	 viewBox="0 0 73.7 73.7" style="enable-background:new 0 0 73.7 73.7;" xml:space="preserve">
<style type="text/css">
	.st0{fill:#FFFF00;}
	.st1{fill:#FFFFFF;}
</style>
<path class="st0" d="M56.2,73.1H17.5c-9.3,0-16.9-7.6-16.9-16.9V17.5c0-9.3,7.6-16.9,16.9-16.9h38.8c9.3,0,16.9,7.6,16.9,16.9v38.8
	C73.1,65.6,65.6,73.1,56.2,73.1z"/>
<g>
	<path class="st1" d="M62.7,24.2c-6.5-0.1-8.5,4.2-10.5,9.5c-1.1,2.9-2.5,7.3-2.5,10.5c0,4.4,3.2,5.4,6,5.4s6.1-0.6,8.7-5.4
		c1.6-2.9,3.1-6.9,3.8-10.2C68.9,31,70.3,24.3,62.7,24.2z M62.9,30.6c-0.1,2-3,10.1-4.1,11.8c-0.5,0.8-1,1.4-1.9,1.4
		c-0.8,0-1.2-0.6-1.2-1.2c-0.1-1.8,3.3-10.9,4.4-12.4c0.5-0.8,1.1-0.9,1.7-0.9C62.9,29.4,63,30,62.9,30.6z"/>
	<path class="st1" d="M45.2,34.6c-2.2,0.1-3.6,0.6-4.3,2.9c-0.7,2.4,1.9,2.4,1.9,2.4c-0.5,2.4-2.1,3.9-3.5,3.9
		c-0.9,0-1.7-0.4-1.4-2.2c0.4-2.7,2.9-9.3,4.1-10.9c0.5-0.7,1.2-1.4,2.3-1.4c1.3,0,1.2,0.7,0.9,1.6c-0.9,2.6,1.8,2.6,2.5,2.6
		c2.4-0.2,3.7-1.7,4-4.3c0.4-3.6-2.6-4.9-6.4-4.9c-6.3,0-8.8,3.9-11.2,9.4c-1.1,2.6-2.5,7.1-2.5,9.9c0,4,2.4,6.1,6.3,6.1
		c5.7,0,9.7-4.5,10.9-10.2C49.2,37.7,49.7,34.4,45.2,34.6z"/>
	<path class="st1" d="M16.1,24.3c-2,0-3.3,0.8-4.3,2.5c-2.2,3.6-6.9,14.3-6.8,19c0.1,2.7,2.1,3.7,4.4,3.8c3.2,0.1,6.8-0.8,7.1-4.8
		c0.1-1.3-0.9-2.7-4.8-2.1c1.6-3.7,6.7-13.1,6.7-16.2C18.5,25.3,18,24.3,16.1,24.3z"/>
	<path class="st1" d="M26.5,33.6c0.8-2,1.5-3.1,1.5-3.1c0.9,0.1,2.3,0,3.2,0c2.2-0.1,4.4-1.1,4.4-3.7c0-1.9-2.3-2.7-4.3-2.7
		c-4.5,0-7.1,0.7-9.7,5.8c-2.1,4.1-4.3,10.4-4.3,14.5c0,3.5,2.8,5.3,6,5.3c2.9,0,7.1-1.1,7.1-4.9c0-1.6-1.2-2.4-3.1-2.4
		c-1.7,0-2.6,0.2-3.9,0.5c0.4-1.6,0.9-3,1.2-3.8c3.3,0.6,6.1,0.4,7-2.8C32.2,33.9,30.5,33,26.5,33.6z"/>
	<path class="st0" d="M62.5,19.9c-3.2,0-6.2,0.9-8.5,2.8c-2-2-4.8-2.9-8.7-2.9c-3,0-5.5,0.7-7.7,2c-1.6-1.2-3.5-2-6.4-2
		c-2.7,0-6.5,0.1-9.3,2.6c-0.7-1.3-2-2.4-5.7-2.4c-3.4,0-6.2,1.6-8,4.6c-2.6,3.9-7.7,15.1-7.6,21.3c0.1,4.6,3.6,7.8,8.6,7.9
		c3,0.1,5.6-0.6,7.6-1.9c1.8,1.3,4,2,6.6,2c3,0,5.7-0.8,7.8-2.2c1.8,1.5,4.2,2.2,6.9,2.2c3.5,0,6.8-1.2,9.4-3.5
		c1.8,2.3,4.9,3.5,8.6,3.5c7,0,10.7-4.3,13.4-9.9c1-2.1,2.9-7.3,3.3-10.2c0.4-3.5,0.8-6.7-1.5-10C69.6,21.4,66.8,19.9,62.5,19.9z
		 M71.1,30.8c-0.1,2.6-1,5.7-1.6,7.6c-2.8,8.3-6.1,13.5-13.8,13.5c-3.5,0-6.7-1.4-7.9-4.8C45.5,50,42,51.9,38,51.9
		c-3.1,0-5.4-1.1-6.9-2.9c-1.8,2-4.8,2.9-7.8,2.9c-2.7,0-5-0.9-6.5-2.6c-1.6,1.7-4.2,2.5-7.6,2.5c-4.2,0-6.6-2.6-6.7-6.1
		C2.4,40.2,7.6,29,9.8,25.5c1.5-2.4,3.5-3.6,6.3-3.6c1.5,0,3,0.3,4,1.3c0.8,0.8,0.9,1.6,1,3c2.4-3.9,6.4-4.4,10.2-4.4
		c2.8,0,5.2,1.1,6.2,2.7c1.7-1.7,4.5-2.7,7.8-2.7c3.4,0,5.9,0.8,7.4,2.6c0.3,0.4,0.6,0.7,0.9,1.4c1.9-2.4,4.7-4,8.8-4
		C69.5,21.8,71.3,26.5,71.1,30.8z"/>
	<path class="st0" d="M62.5,19.9c-3.2,0-6.2,0.9-8.5,2.8c-2-2-4.8-2.9-8.7-2.9c-3,0-5.5,0.7-7.7,2c-1.6-1.2-3.5-2-6.4-2
		c-2.7,0-6.5,0.1-9.3,2.6c-0.7-1.3-2-2.4-5.7-2.4c-3.4,0-6.2,1.6-8,4.6c-2.6,3.9-7.7,15.1-7.6,21.3c0.1,4.6,3.6,7.8,8.6,7.9
		c3,0.1,5.6-0.6,7.6-1.9c1.8,1.3,4,2,6.6,2c3,0,5.7-0.8,7.8-2.2c1.8,1.5,4.2,2.2,6.9,2.2c3.5,0,6.8-1.2,9.4-3.5
		c1.8,2.3,4.9,3.5,8.6,3.5c7,0,10.7-4.3,13.4-9.9c1-2.1,2.9-7.3,3.3-10.2c0.4-3.5,0.8-6.7-1.5-10C69.6,21.4,66.8,19.9,62.5,19.9z
		 M71.1,30.8c-0.1,2.6-1,5.7-1.6,7.6c-2.8,8.3-6.1,13.5-13.8,13.5c-3.5,0-6.7-1.4-7.9-4.8C45.5,50,42,51.9,38,51.9
		c-3.1,0-5.4-1.1-6.9-2.9c-1.8,2-4.8,2.9-7.8,2.9c-2.7,0-5-0.9-6.5-2.6c-1.6,1.7-4.2,2.5-7.6,2.5c-4.2,0-6.6-2.6-6.7-6.1
		C2.4,40.2,7.6,29,9.8,25.5c1.5-2.4,3.5-3.6,6.3-3.6c1.5,0,3,0.3,4,1.3c0.8,0.8,0.9,1.6,1,3c2.4-3.9,6.4-4.4,10.2-4.4
		c2.8,0,5.2,1.1,6.2,2.7c1.7-1.7,4.5-2.7,7.8-2.7c3.4,0,5.9,0.8,7.4,2.6c0.3,0.4,0.6,0.7,0.9,1.4c1.9-2.4,4.7-4,8.8-4
		C69.5,21.8,71.3,26.5,71.1,30.8z"/>
	<path d="M61.9,29.3c-0.7,0-1.2,0.1-1.7,0.9c-1.1,1.5-4.5,10.6-4.4,12.4c0,0.7,0.4,1.2,1.2,1.2c0.9,0,1.4-0.6,1.9-1.4
		c1.1-1.8,4-9.8,4.1-11.8C63,30,62.9,29.4,61.9,29.3z"/>
	<path d="M62.4,22.4c-3.5,0-6.3,1.2-8.4,3.7l-0.5,0.6l-0.4-0.8c-0.3-0.6-0.5-0.9-0.8-1.2c-1.4-1.6-3.8-2.4-7-2.4
		c-3,0-5.7,0.9-7.6,2.5l-0.5,0.4l-0.3-0.5c-0.9-1.5-3.1-2.4-5.7-2.4c-3.7,0-7.4,0.5-9.7,4.1l-0.9,1.5l-0.1-1.8
		c-0.1-1.4-0.2-1.9-0.8-2.6c-0.7-0.7-1.9-1.1-3.6-1.1c-2.6,0-4.5,1.1-5.8,3.4C8.1,29.2,3,40.4,3.1,45.7c0.1,3.4,2.4,5.6,6.1,5.6
		c3.1,0.1,5.6-0.7,7.2-2.3l0.4-0.4l0.4,0.4c1.4,1.5,3.6,2.4,6,2.4c3.2,0,5.9-1,7.4-2.7l0.4-0.5l0.4,0.5c1.5,1.8,3.7,2.7,6.5,2.7
		c3.7,0,7.1-1.7,9.4-4.6l0.6-0.8l0.3,0.9c1.4,3.8,5.2,4.4,7.4,4.4c7.3,0,10.5-5,13.2-13.2c0.7-2,1.5-5,1.6-7.5
		c0.1-1.8-0.2-4.4-1.9-6.2C67.3,23.1,65.2,22.4,62.4,22.4z M11.7,42.7c3.9-0.7,4.9,0.7,4.8,2.1c-0.4,4-4,4.8-7.1,4.8
		c-2.3-0.1-4.3-1.1-4.4-3.8c-0.1-4.7,4.6-15.4,6.8-19c1-1.7,2.3-2.5,4.3-2.5c1.9,0,2.4,1,2.3,2.1C18.4,29.5,13.3,39,11.7,42.7z
		 M24.5,39c-0.3,0.7-0.8,2.2-1.2,3.8c1.3-0.3,2.3-0.6,3.9-0.5c1.9,0,3.1,0.8,3.1,2.4c0,3.8-4.2,4.9-7.1,4.9c-3.2,0-6-1.8-6-5.3
		c0-4.1,2.2-10.3,4.3-14.5c2.6-5.1,5.2-5.8,9.7-5.8c2,0,4.3,0.8,4.3,2.7c0,2.6-2.2,3.6-4.4,3.7c-0.9,0.1-2.4,0.1-3.2,0
		c0,0-0.7,1.1-1.5,3.1c4-0.6,5.7,0.3,5.1,2.7C30.6,39.4,27.9,39.6,24.5,39z M48.9,39.4c-1.1,5.7-5.2,10.2-10.9,10.2
		c-3.9,0-6.3-2.2-6.3-6.1c0-2.8,1.4-7.3,2.5-9.9c2.4-5.5,4.9-9.4,11.2-9.4c3.8,0,6.8,1.4,6.4,4.9c-0.3,2.6-1.6,4.2-4,4.3
		c-0.7,0.1-3.4,0-2.5-2.6c0.3-0.9,0.4-1.6-0.9-1.6c-1.1,0-1.8,0.7-2.3,1.4c-1.2,1.6-3.7,8.2-4.1,10.9c-0.3,1.9,0.5,2.2,1.4,2.2
		c1.4,0,3-1.5,3.5-3.9c0,0-2.7-0.1-1.9-2.4c0.7-2.3,2.1-2.8,4.3-2.9C49.7,34.4,49.2,37.7,48.9,39.4z M68.3,33.9
		c-0.7,3.3-2.2,7.3-3.8,10.2c-2.7,4.8-5.9,5.5-8.7,5.4c-2.8,0-6-1.1-6-5.4c0-3.1,1.3-7.6,2.5-10.5c2-5.3,4-9.6,10.5-9.5
		C70.3,24.3,68.9,31,68.3,33.9z"/>
	<path d="M62.4,21.8c-4.1,0-6.9,1.6-8.8,3.9c-0.3-0.7-0.6-1-0.9-1.4c-1.5-1.7-4-2.5-7.4-2.5c-3.3,0-6,1-7.9,2.6
		c-1-1.6-3.3-2.7-6.2-2.7c-3.7,0-7.8,0.5-10.2,4.4c-0.1-1.4-0.2-2.1-1-3c-1-1-2.5-1.3-4-1.3c-2.7,0-4.8,1.2-6.3,3.6
		C7.6,29,2.4,40.2,2.6,45.7c0,3.5,2.4,6.1,6.6,6.2c3.3,0.1,5.9-0.8,7.6-2.5c1.5,1.6,3.7,2.6,6.5,2.6c3,0,6-0.9,7.8-2.9
		C32.6,51,35,52,38,52c4,0,7.5-1.9,9.8-4.8c1.3,3.4,4.4,4.8,7.9,4.8c7.6,0,11-5.2,13.8-13.5c0.6-1.9,1.5-5,1.6-7.6
		C71.3,26.5,69.5,21.8,62.4,21.8z"/>
	<path class="st1" d="M62.6,24.3c-6.5-0.1-8.5,4.2-10.5,9.5c-1.1,2.9-2.5,7.3-2.5,10.5c0,4.4,3.2,5.4,6,5.4s6.1-0.6,8.7-5.4
		c1.6-2.9,3.1-6.9,3.8-10.2C68.8,31.1,70.2,24.4,62.6,24.3z M62.8,30.7c-0.1,2-3,10.1-4.1,11.8c-0.5,0.8-1,1.4-1.9,1.4
		c-0.8,0-1.2-0.6-1.2-1.2c-0.1-1.8,3.3-10.9,4.4-12.4c0.5-0.8,1.1-0.9,1.7-0.9C62.8,29.5,62.9,30.1,62.8,30.7z"/>
	<path class="st1" d="M45.1,34.7c-2.2,0.1-3.6,0.6-4.3,2.9C40.1,40,42.7,40,42.7,40c-0.5,2.4-2.1,3.9-3.5,3.9
		c-0.9,0-1.7-0.4-1.4-2.2c0.4-2.7,2.9-9.3,4.1-10.9c0.5-0.7,1.2-1.4,2.3-1.4c1.3,0,1.2,0.7,0.9,1.6c-0.9,2.6,1.8,2.6,2.5,2.6
		c2.4-0.2,3.7-1.7,4-4.3c0.4-3.6-2.6-4.9-6.4-4.9c-6.3,0-8.8,3.9-11.2,9.4c-1.1,2.6-2.5,7.1-2.5,9.9c0,4,2.4,6.1,6.3,6.1
		c5.7,0,9.7-4.5,10.9-10.2C49.1,37.8,49.6,34.5,45.1,34.7z"/>
	<path class="st1" d="M16,24.4c-2,0-3.3,0.8-4.3,2.5c-2.2,3.6-6.9,14.3-6.8,19C5,48.6,7,49.6,9.3,49.7c3.2,0.1,6.8-0.8,7.1-4.8
		c0.1-1.3-0.9-2.7-4.8-2.1c1.6-3.7,6.7-13.1,6.7-16.2C18.4,25.4,17.9,24.4,16,24.4z"/>
	<path class="st1" d="M26.4,33.7c0.8-2,1.5-3.1,1.5-3.1c0.9,0.1,2.3,0,3.2,0c2.2-0.1,4.4-1.1,4.4-3.7c0-1.9-2.3-2.7-4.3-2.7
		c-4.5,0-7.1,0.7-9.7,5.8c-2.1,4.1-4.3,10.4-4.3,14.5c0,3.5,2.8,5.3,6,5.3c2.9,0,7.1-1.1,7.1-4.9c0-1.6-1.2-2.4-3.1-2.4
		c-1.7,0-2.6,0.2-3.9,0.5c0.4-1.6,0.9-3,1.2-3.8c3.3,0.6,6.1,0.4,7-2.8C32.1,34,30.4,33.1,26.4,33.7z"/>
	<path d="M62.3,22.5c-3.5,0-6.3,1.2-8.4,3.7l-0.5,0.6L53,26c-0.3-0.6-0.5-0.9-0.8-1.2c-1.4-1.6-3.8-2.4-7-2.4c-3,0-5.7,0.9-7.6,2.5
		l-0.5,0.4l-0.3-0.5c-0.9-1.5-3.1-2.4-5.7-2.4c-3.7,0-7.4,0.5-9.7,4.1L20.5,28l-0.1-1.8c-0.1-1.4-0.2-1.9-0.8-2.6
		c-0.7-0.7-1.9-1.1-3.6-1.1c-2.6,0-4.5,1.1-5.8,3.4C8,29.3,2.9,40.5,3,45.8c0.1,3.4,2.4,5.6,6.1,5.6c3.1,0.1,5.6-0.7,7.2-2.3
		l0.4-0.4l0.4,0.4c1.4,1.5,3.6,2.4,6,2.4c3.2,0,5.9-1,7.4-2.7l0.4-0.5l0.4,0.5c1.5,1.8,3.7,2.7,6.5,2.7c3.7,0,7.1-1.7,9.4-4.6
		l0.6-0.8l0.3,0.9c1.4,3.8,5.2,4.4,7.4,4.4c7.3,0,10.5-5,13.2-13.2c0.7-2,1.5-5,1.6-7.5c0.1-1.8-0.2-4.4-1.9-6.2
		C67.2,23.2,65.1,22.5,62.3,22.5z M11.6,42.8c3.9-0.7,4.9,0.7,4.8,2.1c-0.4,4-4,4.8-7.1,4.8C7,49.6,5,48.6,4.9,45.9
		c-0.1-4.7,4.6-15.4,6.8-19c1-1.7,2.3-2.5,4.3-2.5c1.9,0,2.4,1,2.3,2.1C18.3,29.6,13.2,39.1,11.6,42.8z M24.4,39.1
		c-0.3,0.7-0.8,2.2-1.2,3.8c1.3-0.3,2.3-0.6,3.9-0.5c1.9,0,3.1,0.8,3.1,2.4c0,3.8-4.2,4.9-7.1,4.9c-3.2,0-6-1.8-6-5.3
		c0-4.1,2.2-10.3,4.3-14.5c2.6-5.1,5.2-5.8,9.7-5.8c2,0,4.3,0.8,4.3,2.7c0,2.6-2.2,3.6-4.4,3.7c-0.9,0.1-2.4,0.1-3.2,0
		c0,0-0.7,1.1-1.5,3.1c4-0.6,5.7,0.3,5.1,2.7C30.5,39.5,27.8,39.7,24.4,39.1z M48.8,39.5c-1.1,5.7-5.2,10.2-10.9,10.2
		c-3.9,0-6.3-2.2-6.3-6.1c0-2.8,1.4-7.3,2.5-9.9c2.4-5.5,4.9-9.4,11.2-9.4c3.8,0,6.8,1.4,6.4,4.9c-0.3,2.6-1.6,4.2-4,4.3
		c-0.7,0.1-3.4,0-2.5-2.6c0.3-0.9,0.4-1.6-0.9-1.6c-1.1,0-1.8,0.7-2.3,1.4c-1.2,1.6-3.7,8.2-4.1,10.9c-0.3,1.9,0.5,2.2,1.4,2.2
		c1.4,0,3-1.5,3.5-3.9c0,0-2.7-0.1-1.9-2.4c0.7-2.3,2.1-2.8,4.3-2.9C49.6,34.5,49.1,37.8,48.8,39.5z M68.2,34
		c-0.7,3.3-2.2,7.3-3.8,10.2c-2.7,4.8-5.9,5.5-8.7,5.4c-2.8,0-6-1.1-6-5.4c0-3.1,1.3-7.6,2.5-10.5c2-5.3,4-9.6,10.5-9.5
		C70.2,24.4,68.8,31.1,68.2,34z"/>
</g>
</svg>
