<?xml version="1.0" encoding="utf-8"?>
<!-- Generator: Adobe Illustrator 22.1.0, SVG Export Plug-In . SVG Version: 6.00 Build 0)  -->
<svg version="1.1" id="Capa_1" xmlns="http://www.w3.org/2000/svg" xmlns:xlink="http://www.w3.org/1999/xlink" x="0px" y="0px"
	 viewBox="0 0 299 299" style="enable-background:new 0 0 299 299;" xml:space="preserve">
<path d="M149.5,1C67.6,1,1,67.6,1,149.5C1,231.4,67.6,298,149.5,298c81.9,0,148.5-66.6,148.5-148.5C298,67.6,231.4,1,149.5,1z
	 M291,149.5c0,78-63.5,141.5-141.5,141.5S8,227.6,8,149.5S71.5,8,149.5,8S291,71.5,291,149.5z"/>
<path d="M154.4,149.5l56.1-56.1c0.7-0.7,1-1.5,1-2.5c0-0.9-0.4-1.8-1-2.5c-0.7-0.7-1.5-1-2.5-1c0,0,0,0,0,0c-0.9,0-1.8,0.4-2.5,1
	l-56.1,56.1L93.5,88.5c-1.3-1.3-3.6-1.3-4.9,0c-0.7,0.7-1,1.5-1,2.5c0,0.9,0.4,1.8,1,2.5l56.1,56.1l-56.1,56.1c-0.7,0.7-1,1.5-1,2.5
	c0,0.9,0.4,1.8,1,2.5c0.7,0.7,1.5,1,2.5,1c0.9,0,1.8-0.4,2.5-1l56.1-56.1l56.1,56.1c0.7,0.7,1.5,1,2.5,1c0.9,0,1.8-0.4,2.5-1
	c1.4-1.4,1.4-3.6,0-4.9L154.4,149.5z"/>
</svg>
