<?xml version="1.0" encoding="utf-8"?>
<!-- Generator: Adobe Illustrator 22.1.0, SVG Export Plug-In . SVG Version: 6.00 Build 0)  -->
<svg version="1.1" id="Capa_1" xmlns="http://www.w3.org/2000/svg" xmlns:xlink="http://www.w3.org/1999/xlink" x="0px" y="0px"
	 viewBox="0 0 299 299" style="enable-background:new 0 0 299 299;" xml:space="preserve">
<g>
	<g>
		<g>
			<g>
				<g>
					<path d="M72.5,197.3c-1.5-0.3-2.5-1.7-2.5-3.2c0-68.7,54.3-76.1,77.6-76.1c2.5,0,4.7,0.1,6.3,0.2V89.1c0-1.3,0.7-2.4,1.9-3
						c1.1-0.5,2.4-0.4,3.5,0.3l68.5,52.5c0.8,0.6,1.3,1.6,1.3,2.6c0,1-0.5,1.9-1.3,2.6l-68.5,52.5c-1,0.8-2.4,0.8-3.5,0.3
						c-1.1-0.6-1.9-1.7-1.9-3v-27.7c-62.6,0.9-77.6,28.7-77.7,29.1c-0.6,1.1-1.7,1.8-3,1.8C73,197.4,72.8,197.4,72.5,197.3z"/>
				</g>
			</g>
		</g>
	</g>
	<path d="M149.5,1C67.6,1,1,67.6,1,149.5C1,231.4,67.6,298,149.5,298c81.9,0,148.5-66.6,148.5-148.5C298,67.6,231.4,1,149.5,1z
		 M149.5,291C71.5,291,8,227.5,8,149.5S71.5,8,149.5,8S291,71.5,291,149.5S227.5,291,149.5,291z"/>
</g>
</svg>
