<?xml version="1.0" encoding="utf-8"?>
<!-- Generator: Adobe Illustrator 22.1.0, SVG Export Plug-In . SVG Version: 6.00 Build 0)  -->
<svg version="1.1" id="Layer_1" xmlns="http://www.w3.org/2000/svg" xmlns:xlink="http://www.w3.org/1999/xlink" x="0px" y="0px"
	 viewBox="0 0 469.4 300.9" style="enable-background:new 0 0 469.4 300.9;" xml:space="preserve">
<style type="text/css">
	.st0{fill-rule:evenodd;clip-rule:evenodd;fill:#E60012;}
	.st1{fill-rule:evenodd;clip-rule:evenodd;}
</style>
<g>
	<path class="st0" d="M72.7,5.1c-2,1.4-18.4,20.7-21.4,24.1c-5.3,6.2-9.6,12.2-14.5,18.6c-17.5,23-39.3,67.7-19.8,95.8
		c25.2,36.3,81.2,17.1,117.2,1.9l110-47.4c24.5-10.4,48.7-20.7,73.2-31.5c12.3-5.4,24.2-10.3,36.5-15.7
		c23.9-10.5,49.7-21.7,73.5-31.6c3.2-1.3,34.9-15.3,36.9-15.7c-1-0.6-2.3,0-3.7,0.4c-38.3,10.8-78.1,20.6-116,31.5l-59.9,16.3
		L165,84.2c-25.7,7-69.7,22.8-93.1,4.5c-17.7-13.9-18-36.4-11.1-57c1.6-4.7,3.2-9.4,5.4-13.8L72.7,5.1L72.7,5.1z"/>
	<path class="st1" d="M316.3,258.7c-0.3-7.3-0.7-23,2.8-28.8c2.4-3.9,7.9-4.2,10.1,0c1.7,3.2,2.5,9.3,2.7,13.5
		c0.4,7.8,0.7,22.3-2.8,28.6c-2.4,4.3-7.2,4-9.9-0.1C317.5,269.1,316.5,262.4,316.3,258.7L316.3,258.7z M319.9,205.7
		c-7.5,1-12.2,4.3-16.9,8.2c-10.9,9.1-13.1,27.9-12.5,42.3c1.1,24.6,12.5,43.8,38.8,41.3c25.2-2.5,30.2-30,29.2-50.4
		c-0.3-5.7-1-12.1-2.8-17.3c-1.6-4.7-3.3-8.8-6.3-12.6c-0.2-0.3-0.4-0.5-0.6-0.7c-2.1-2.6-2.2-2.7-4.9-4.9
		C337.5,206.1,328.6,204.5,319.9,205.7L319.9,205.7z"/>
	<path class="st1" d="M252.5,231.2c3.3-0.1,4.6-0.2,6.5,1.8c6.2,6.2,5.2,27.6,2.9,34.8c-0.7,2.3-1.8,4.1-3.3,5.1
		c-1.8,1.2-3.8,1.9-6.4,1.4L252.5,231.2L252.5,231.2z M227.2,295.8c8.9-0.2,17.8,0,26.7,0c8.3,0,14.9-2.2,20.3-6.2l5.3-4.8
		c7.5-10.1,9.7-19.5,10-33c0.5-26.7-11.3-43.9-35.9-43.9c-8.8,0-17.6,0-26.3,0L227.2,295.8L227.2,295.8z"/>
	<path class="st1" d="M46,263.4c0,10-0.3,17.1,6.3,24.8c0.5,0.5,0.6,0.8,1.1,1.3c8.9,9.3,27,10.1,38.6,5.3c4.6-1.9,8-5.1,10.6-9.3
		c2.6-4.3,4-9.3,4.4-15.1c0.4-6.1,0.1-13.3,0-19.5l-0.1-43.3l-25.2,0c0.1,18.6,0.5,39.9,0.2,58.1c-0.1,3.9-1.2,8.2-5.4,8.2
		c-4.4,0-5.2-4.2-5.2-8.2l-0.4-58.1H45.6L46,263.4L46,263.4z"/>
	<path class="st1" d="M107.8,290.7c9.1,6.7,23.6,9.5,35.5,3.7c11.4-5.5,16.8-17.5,15-29.7c-1.4-9.7-7.5-15.1-13.9-20.5l-6.1-5
		c-7.9-5.6-4.5-11.6,1.1-12c4.2-0.3,9.5,2.2,12.6,4.4c1.4,1,1.8,1.4,3.3,2.1l-0.3-22.3c-9.5-5.5-25.9-7.9-35.7-1.7
		c-14,8.8-15.1,27.9-6.4,38.1c3.8,4.5,6.7,7.2,11.3,11l5.8,5.3c2.9,4,2.6,9.3-2.3,10.6c-6.6,1.7-13.2-2.2-18.3-5.8l-1.3-0.8
		L107.8,290.7L107.8,290.7z"/>
	<polygon class="st1" points="156.2,229.9 170.8,229.9 170.9,295.6 195.9,295.6 195.9,229.9 209.9,229.9 209.9,207.7 156.1,207.7 
		156.2,229.9 	"/>
	<polygon class="st1" points="401.1,229.9 415.7,229.9 415.8,295.6 440.8,295.6 440.8,229.9 454.9,229.9 454.9,207.7 401.1,207.7 
		401.1,229.9 	"/>
	<path class="st1" d="M19.6,249.3c0,5.8,0.7,16.6-0.2,21.9c-0.6,3.5-3.5,4.9-6.8,4.1c-4.7-1.1-5.9-2.8-7.5-3.3l0,18
		c0,3.2-0.5,3.1,2,4.2c10.4,4.8,25.4,4.1,32.4-6c7.7-11,5.2-30,5.2-44.4l-0.3-36.2H19.4L19.6,249.3L19.6,249.3z"/>
	<polygon class="st1" points="374.2,295.6 399.4,295.6 399.5,207.8 373.9,207.8 374.2,295.6 	"/>
	<path d="M453.8,280.6c1.4,0,2.8,0.3,4.1,1.1c1.3,0.7,2.4,1.7,3.1,3.1c0.7,1.3,1.1,2.7,1.1,4.2c0,1.4-0.4,2.8-1.1,4.1
		c-0.7,1.3-1.7,2.4-3.1,3.1c-1.3,0.7-2.7,1.1-4.1,1.1c-1.5,0-2.9-0.4-4.2-1.1c-1.3-0.7-2.4-1.8-3.1-3.1c-0.7-1.3-1.1-2.7-1.1-4.1
		c0-1.4,0.4-2.9,1.1-4.2c0.7-1.3,1.8-2.4,3.1-3.1C451,280.9,452.3,280.6,453.8,280.6L453.8,280.6z M453.8,281.9
		c-1.2,0-2.3,0.3-3.4,0.9c-1.1,0.6-2,1.5-2.6,2.6c-0.6,1.1-0.9,2.3-0.9,3.5s0.3,2.4,0.9,3.5c0.6,1.1,1.5,2,2.6,2.6
		c1.1,0.6,2.3,0.9,3.5,0.9c1.2,0,2.3-0.3,3.4-0.9c1.1-0.6,2-1.5,2.6-2.6c0.6-1.1,0.9-2.3,0.9-3.5s-0.3-2.4-1-3.5
		c-0.6-1.1-1.5-2-2.6-2.6C456,282.2,454.9,281.9,453.8,281.9L453.8,281.9z M450.1,293.5v-9h3.1c1.1,0,1.8,0.1,2.3,0.2
		c0.5,0.2,0.8,0.5,1.1,0.9c0.3,0.4,0.4,0.9,0.4,1.3c0,0.6-0.2,1.2-0.7,1.7c-0.5,0.5-1.1,0.8-1.9,0.8c0.3,0.1,0.6,0.3,0.8,0.5
		c0.4,0.4,0.8,0.9,1.3,1.8l1.1,1.8h-1.8l-0.8-1.4c-0.6-1.1-1.1-1.8-1.5-2.1c-0.3-0.2-0.6-0.3-1.2-0.3h-0.9v3.8H450.1L450.1,293.5z
		 M451.5,288.5h1.8c0.8,0,1.4-0.1,1.7-0.4c0.3-0.2,0.5-0.6,0.5-1c0-0.3-0.1-0.5-0.2-0.7c-0.1-0.2-0.4-0.4-0.6-0.5
		c-0.3-0.1-0.7-0.2-1.5-0.2h-1.6V288.5L451.5,288.5z"/>
</g>
</svg>
